<svg width="16" height="16" viewBox="0 0 16 16" fill="none" xmlns="http://www.w3.org/2000/svg">
<path d="M9.42021 5.15354L9.77377 4.79999L9.06666 4.09288L8.71311 4.44644L9.42021 5.15354ZM5.86666 7.99999L5.51311 7.64644L5.15955 7.99999L5.51311 8.35354L5.86666 7.99999ZM8.71311 11.5535L9.06666 11.9071L9.77377 11.2L9.42021 10.8464L8.71311 11.5535ZM8.71311 4.44644L5.51311 7.64644L6.22021 8.35354L9.42021 5.15354L8.71311 4.44644ZM5.51311 8.35354L8.71311 11.5535L9.42021 10.8464L6.22021 7.64644L5.51311 8.35354ZM7.99999 14.9667C4.15241 14.9667 1.03332 11.8476 1.03333 7.99999L0.0333252 7.99999C0.0333244 12.3999 3.60012 15.9667 7.99999 15.9667V14.9667ZM14.9667 7.99999C14.9667 11.8476 11.8476 14.9667 7.99999 14.9667V15.9667C12.3999 15.9667 15.9667 12.3999 15.9667 7.99999H14.9667ZM7.99999 1.03333C11.8476 1.03333 14.9667 4.15241 14.9667 7.99999H15.9667C15.9667 3.60013 12.3999 0.033326 7.99999 0.0333252V1.03333ZM7.99999 0.0333252C3.60013 0.0333244 0.033326 3.60012 0.0333252 7.99999L1.03333 7.99999C1.03333 4.15241 4.15241 1.03332 7.99999 1.03333V0.0333252Z" fill="#50A3BD"/>
</svg>
