<svg width="42" height="42" viewBox="0 0 42 42" fill="none" xmlns="http://www.w3.org/2000/svg">
<path d="M14.3333 15.6667H16.9999M24.9999 26.3333H27.6666M27.6666 14.3333L14.3333 27.6667M19.1371 3.10494L16.1264 6.11566C15.6324 6.6097 14.9623 6.88725 14.2636 6.88725H9.52154C8.06661 6.88725 6.88716 8.0667 6.88716 9.52163V14.2637C6.88716 14.9624 6.60961 15.6325 6.11557 16.1265L3.10484 19.1372C2.07605 20.166 2.07605 21.834 3.10484 22.8628L6.11557 25.8735C6.60961 26.3676 6.88716 27.0376 6.88716 27.7363V32.4784C6.88716 33.9333 8.06661 35.1128 9.52154 35.1128H14.2636C14.9623 35.1128 15.6324 35.3903 16.1264 35.8844L19.1371 38.8951C20.1659 39.9239 21.8339 39.9239 22.8627 38.8951L25.8734 35.8844C26.3675 35.3903 27.0375 35.1128 27.7362 35.1128H32.4783C33.9332 35.1128 35.1127 33.9333 35.1127 32.4784V27.7363C35.1127 27.0376 35.3902 26.3676 35.8843 25.8735L38.895 22.8628C39.9238 21.834 39.9238 20.166 38.895 19.1372L35.8843 16.1265C35.3902 15.6325 35.1127 14.9624 35.1127 14.2637V9.52163C35.1127 8.0667 33.9332 6.88725 32.4783 6.88725H27.7362C27.0375 6.88725 26.3675 6.6097 25.8734 6.11566L22.8627 3.10494C21.8339 2.07615 20.1659 2.07615 19.1371 3.10494Z" stroke="#50A3BD" stroke-width="4"/>
</svg>
