<svg
        aria-hidden="true"
        role="presentation"
        width="24"
        height="24"
        fill="var(--color-base)"
        viewBox="0 0 24 24"
        xmlns="http://www.w3.org/2000/svg"
      >
        <path
          fill-rule="evenodd"
          clip-rule="evenodd"
          d="M12.454 3.727a.727.727 0 10-1.454 0v.728a.727.727 0 001.454 0v-.728zM5.54 5.54a.727.727 0 011.029 0l.509.51a.727.727 0 11-1.029 1.028l-.509-.51a.727.727 0 010-1.028zM3 11.727c0-.401.326-.727.727-.727h.728a.727.727 0 010 1.454h-.728A.727.727 0 013 11.727zM17.914 5.54a.727.727 0 010 1.029l-.509.509a.727.727 0 11-1.028-1.029l.509-.509a.727.727 0 011.028 0zM19 11a.727.727 0 100 1.454h.727a.727.727 0 000-1.454H19zm-2.623 5.377a.727.727 0 011.028 0l.51.509a.727.727 0 01-1.03 1.028l-.508-.509a.727.727 0 010-1.028zM12.455 19A.727.727 0 1011 19v.727a.727.727 0 001.454 0V19zm-5.377-2.623a.727.727 0 010 1.028l-.51.51a.727.727 0 01-1.028-1.03l.51-.508a.727.727 0 011.028 0zm9.013-4.65a4.364 4.364 0 11-8.727 0 4.364 4.364 0 018.727 0z"
        ></path>
      </svg>